<svg width="56" height="57" viewBox="0 0 56 57" fill="none" xmlns="http://www.w3.org/2000/svg">
<rect y="0.516113" width="56" height="56" rx="8" fill="#54A6FB"/>
<path d="M33.076 35.7161L28 32.6561L22.924 35.7161L24.268 29.9441L19.792 26.0681L25.696 25.5641L28 20.1161L30.304 25.5521L36.208 26.0561L31.732 29.9321L33.076 35.7161ZM28 16.5161C21.364 16.5161 16 21.9161 16 28.5161C16 31.6987 17.2643 34.751 19.5147 37.0014C20.629 38.1157 21.9519 38.9996 23.4078 39.6027C24.8637 40.2057 26.4241 40.5161 28 40.5161C31.1826 40.5161 34.2348 39.2518 36.4853 37.0014C38.7357 34.751 40 31.6987 40 28.5161C40 26.9403 39.6896 25.3798 39.0866 23.9239C38.4835 22.468 37.5996 21.1451 36.4853 20.0308C35.371 18.9165 34.0481 18.0326 32.5922 17.4296C31.1363 16.8265 29.5759 16.5161 28 16.5161Z" fill="white"/>
</svg>
