<svg width="44" height="44" viewBox="0 0 44 44" fill="none" xmlns="http://www.w3.org/2000/svg">
<rect width="44" height="44" rx="8" fill="#54A6FB"/>
<path d="M22 32.5C19.2152 32.5 16.5445 31.3938 14.5754 29.4246C12.6062 27.4555 11.5 24.7848 11.5 22C11.5 19.2152 12.6062 16.5445 14.5754 14.5754C16.5445 12.6062 19.2152 11.5 22 11.5C24.7848 11.5 27.4555 12.6062 29.4246 14.5754C31.3938 16.5445 32.5 19.2152 32.5 22C32.5 24.7848 31.3938 27.4555 29.4246 29.4246C27.4555 31.3938 24.7848 32.5 22 32.5ZM22 34C25.1826 34 28.2348 32.7357 30.4853 30.4853C32.7357 28.2348 34 25.1826 34 22C34 18.8174 32.7357 15.7652 30.4853 13.5147C28.2348 11.2643 25.1826 10 22 10C18.8174 10 15.7652 11.2643 13.5147 13.5147C11.2643 15.7652 10 18.8174 10 22C10 25.1826 11.2643 28.2348 13.5147 30.4853C15.7652 32.7357 18.8174 34 22 34Z" fill="white"/>
<path d="M23.395 19.882L19.96 20.3125L19.837 20.8825L20.512 21.007C20.953 21.112 21.04 21.271 20.944 21.7105L19.837 26.9125C19.546 28.258 19.9945 28.891 21.049 28.891C21.8665 28.891 22.816 28.513 23.2465 27.994L23.3785 27.37C23.0785 27.634 22.6405 27.739 22.3495 27.739C21.937 27.739 21.787 27.4495 21.8935 26.9395L23.395 19.882ZM23.5 16.75C23.5 17.1478 23.342 17.5294 23.0607 17.8107C22.7794 18.092 22.3978 18.25 22 18.25C21.6022 18.25 21.2206 18.092 20.9393 17.8107C20.658 17.5294 20.5 17.1478 20.5 16.75C20.5 16.3522 20.658 15.9706 20.9393 15.6893C21.2206 15.408 21.6022 15.25 22 15.25C22.3978 15.25 22.7794 15.408 23.0607 15.6893C23.342 15.9706 23.5 16.3522 23.5 16.75Z" fill="white"/>
</svg>
