<svg width="56" height="51" viewBox="0 0 56 51" fill="none" xmlns="http://www.w3.org/2000/svg">
<rect width="56" height="50.6667" rx="8" fill="#54A6FB" fill-opacity="0.1"/>
<path d="M17.3333 21.3333C16.9556 21.3333 16.6391 21.2053 16.384 20.9493C16.128 20.6942 16 20.3778 16 20V17.3333C16 16.9556 16.128 16.6387 16.384 16.3827C16.6391 16.1276 16.9556 16 17.3333 16H20C20.3778 16 20.6947 16.1276 20.9507 16.3827C21.2058 16.6387 21.3333 16.9556 21.3333 17.3333V20C21.3333 20.3778 21.2058 20.6942 20.9507 20.9493C20.6947 21.2053 20.3778 21.3333 20 21.3333H17.3333ZM24 21.3333C23.6222 21.3333 23.3058 21.2053 23.0507 20.9493C22.7947 20.6942 22.6667 20.3778 22.6667 20V17.3333C22.6667 16.9556 22.7947 16.6387 23.0507 16.3827C23.3058 16.1276 23.6222 16 24 16H38.6667C39.0444 16 39.3609 16.1276 39.616 16.3827C39.872 16.6387 40 16.9556 40 17.3333V20C40 20.3778 39.872 20.6942 39.616 20.9493C39.3609 21.2053 39.0444 21.3333 38.6667 21.3333H24ZM24 28C23.6222 28 23.3058 27.872 23.0507 27.616C22.7947 27.3609 22.6667 27.0444 22.6667 26.6667V24C22.6667 23.6222 22.7947 23.3053 23.0507 23.0493C23.3058 22.7942 23.6222 22.6667 24 22.6667H38.6667C39.0444 22.6667 39.3609 22.7942 39.616 23.0493C39.872 23.3053 40 23.6222 40 24V26.6667C40 27.0444 39.872 27.3609 39.616 27.616C39.3609 27.872 39.0444 28 38.6667 28H24ZM17.3333 28C16.9556 28 16.6391 27.872 16.384 27.616C16.128 27.3609 16 27.0444 16 26.6667V24C16 23.6222 16.128 23.3053 16.384 23.0493C16.6391 22.7942 16.9556 22.6667 17.3333 22.6667H20C20.3778 22.6667 20.6947 22.7942 20.9507 23.0493C21.2058 23.3053 21.3333 23.6222 21.3333 24V26.6667C21.3333 27.0444 21.2058 27.3609 20.9507 27.616C20.6947 27.872 20.3778 28 20 28H17.3333ZM24 34.6667C23.6222 34.6667 23.3058 34.5387 23.0507 34.2827C22.7947 34.0276 22.6667 33.7111 22.6667 33.3333V30.6667C22.6667 30.2889 22.7947 29.972 23.0507 29.716C23.3058 29.4609 23.6222 29.3333 24 29.3333H38.6667C39.0444 29.3333 39.3609 29.4609 39.616 29.716C39.872 29.972 40 30.2889 40 30.6667V33.3333C40 33.7111 39.872 34.0276 39.616 34.2827C39.3609 34.5387 39.0444 34.6667 38.6667 34.6667H24ZM17.3333 34.6667C16.9556 34.6667 16.6391 34.5387 16.384 34.2827C16.128 34.0276 16 33.7111 16 33.3333V30.6667C16 30.2889 16.128 29.972 16.384 29.716C16.6391 29.4609 16.9556 29.3333 17.3333 29.3333H20C20.3778 29.3333 20.6947 29.4609 20.9507 29.716C21.2058 29.972 21.3333 30.2889 21.3333 30.6667V33.3333C21.3333 33.7111 21.2058 34.0276 20.9507 34.2827C20.6947 34.5387 20.3778 34.6667 20 34.6667H17.3333Z" fill="#54A6FB"/>
</svg>
