<svg width="56" height="59" viewBox="0 0 56 59" fill="none" xmlns="http://www.w3.org/2000/svg">
<rect y="0.666748" width="56" height="57.8493" rx="8" fill="#54A6FB" fill-opacity="0.1"/>
<path d="M40 20.3591V18.5129C40 18.0233 39.8055 17.5537 39.4593 17.2075C39.1131 16.8613 38.6435 16.6667 38.1538 16.6667H17.8462C17.3565 16.6667 16.8869 16.8613 16.5407 17.2075C16.1945 17.5537 16 18.0233 16 18.5129V20.3591C16 20.8487 16.1945 21.3183 16.5407 21.6645C16.8869 22.0107 17.3565 22.2052 17.8462 22.2052V33.2821H16.9231C16.6783 33.2821 16.4435 33.3794 16.2704 33.5525C16.0973 33.7256 16 33.9604 16 34.2052C16 34.45 16.0973 34.6848 16.2704 34.8579C16.4435 35.031 16.6783 35.1283 16.9231 35.1283H27.0769V37.136C26.461 37.3537 25.9419 37.7822 25.6114 38.3457C25.2809 38.9091 25.1602 39.5713 25.2706 40.2151C25.3811 40.859 25.7156 41.443 26.2151 41.8641C26.7145 42.2851 27.3468 42.5161 28 42.5161C28.6532 42.5161 29.2855 42.2851 29.7849 41.8641C30.2844 41.443 30.6189 40.859 30.7293 40.2151C30.8398 39.5713 30.7191 38.9091 30.3886 38.3457C30.0581 37.7822 29.539 37.3537 28.9231 37.136V35.1283H39.0769C39.3217 35.1283 39.5565 35.031 39.7296 34.8579C39.9027 34.6848 40 34.45 40 34.2052C40 33.9604 39.9027 33.7256 39.7296 33.5525C39.5565 33.3794 39.3217 33.2821 39.0769 33.2821H38.1538V22.2052C38.6435 22.2052 39.1131 22.0107 39.4593 21.6645C39.8055 21.3183 40 20.8487 40 20.3591ZM25.2308 29.5898C25.2308 29.8346 25.1335 30.0694 24.9604 30.2425C24.7873 30.4156 24.5525 30.5129 24.3077 30.5129C24.0629 30.5129 23.8281 30.4156 23.655 30.2425C23.4819 30.0694 23.3846 29.8346 23.3846 29.5898V27.7437C23.3846 27.4989 23.4819 27.2641 23.655 27.091C23.8281 26.9178 24.0629 26.8206 24.3077 26.8206C24.5525 26.8206 24.7873 26.9178 24.9604 27.091C25.1335 27.2641 25.2308 27.4989 25.2308 27.7437V29.5898ZM28 40.6667C27.8174 40.6667 27.639 40.6126 27.4872 40.5112C27.3354 40.4098 27.2171 40.2656 27.1472 40.0969C27.0773 39.9282 27.059 39.7426 27.0947 39.5636C27.1303 39.3845 27.2182 39.22 27.3473 39.091C27.4764 38.9619 27.6409 38.8739 27.8199 38.8383C27.999 38.8027 28.1846 38.821 28.3532 38.8909C28.5219 38.9607 28.6661 39.079 28.7675 39.2308C28.8689 39.3826 28.9231 39.5611 28.9231 39.7437C28.9231 39.9885 28.8258 40.2233 28.6527 40.3964C28.4796 40.5695 28.2448 40.6667 28 40.6667ZM28.9231 29.5898C28.9231 29.8346 28.8258 30.0694 28.6527 30.2425C28.4796 30.4156 28.2448 30.5129 28 30.5129C27.7552 30.5129 27.5204 30.4156 27.3473 30.2425C27.1742 30.0694 27.0769 29.8346 27.0769 29.5898V26.8206C27.0769 26.5758 27.1742 26.341 27.3473 26.1679C27.5204 25.9948 27.7552 25.8975 28 25.8975C28.2448 25.8975 28.4796 25.9948 28.6527 26.1679C28.8258 26.341 28.9231 26.5758 28.9231 26.8206V29.5898ZM32.6154 29.5898C32.6154 29.8346 32.5181 30.0694 32.345 30.2425C32.1719 30.4156 31.9371 30.5129 31.6923 30.5129C31.4475 30.5129 31.2127 30.4156 31.0396 30.2425C30.8665 30.0694 30.7692 29.8346 30.7692 29.5898V25.8975C30.7692 25.6527 30.8665 25.4179 31.0396 25.2448C31.2127 25.0717 31.4475 24.9744 31.6923 24.9744C31.9371 24.9744 32.1719 25.0717 32.345 25.2448C32.5181 25.4179 32.6154 25.6527 32.6154 25.8975V29.5898ZM17.8462 20.3591V18.5129H38.1538V20.3591H17.8462Z" fill="#54A6FB"/>
</svg>
