<svg width="16" height="16" viewBox="0 0 16 16" fill="none" xmlns="http://www.w3.org/2000/svg">
<g clip-path="url(#clip0_356_6708)">
<mask id="mask0_356_6708" style="mask-type:alpha" maskUnits="userSpaceOnUse" x="0" y="0" width="16" height="16">
<rect width="16" height="16" fill="#D9D9D9"/>
</mask>
<g mask="url(#mask0_356_6708)">
<path d="M3.33333 14.6666C2.96667 14.6666 2.65267 14.5361 2.39133 14.2753C2.13044 14.0139 2 13.6999 2 13.3333V3.99992C2 3.63325 2.13044 3.31947 2.39133 3.05859C2.65267 2.79725 2.96667 2.66659 3.33333 2.66659H4V1.33325H5.33333V2.66659H10.6667V1.33325H12V2.66659H12.6667C13.0333 2.66659 13.3473 2.79725 13.6087 3.05859C13.8696 3.31947 14 3.63325 14 3.99992V13.3333C14 13.6999 13.8696 14.0139 13.6087 14.2753C13.3473 14.5361 13.0333 14.6666 12.6667 14.6666H3.33333ZM3.33333 13.3333H12.6667V6.66658H3.33333V13.3333ZM3.33333 5.33325H12.6667V3.99992H3.33333V5.33325ZM8 9.33325C7.81111 9.33325 7.65289 9.26925 7.52533 9.14125C7.39733 9.0137 7.33333 8.85547 7.33333 8.66658C7.33333 8.4777 7.39733 8.31925 7.52533 8.19125C7.65289 8.0637 7.81111 7.99992 8 7.99992C8.18889 7.99992 8.34733 8.0637 8.47533 8.19125C8.60289 8.31925 8.66667 8.4777 8.66667 8.66658C8.66667 8.85547 8.60289 9.0137 8.47533 9.14125C8.34733 9.26925 8.18889 9.33325 8 9.33325ZM5.33333 9.33325C5.14444 9.33325 4.986 9.26925 4.858 9.14125C4.73044 9.0137 4.66667 8.85547 4.66667 8.66658C4.66667 8.4777 4.73044 8.31925 4.858 8.19125C4.986 8.0637 5.14444 7.99992 5.33333 7.99992C5.52222 7.99992 5.68067 8.0637 5.80867 8.19125C5.93622 8.31925 6 8.4777 6 8.66658C6 8.85547 5.93622 9.0137 5.80867 9.14125C5.68067 9.26925 5.52222 9.33325 5.33333 9.33325ZM10.6667 9.33325C10.4778 9.33325 10.3196 9.26925 10.192 9.14125C10.064 9.0137 10 8.85547 10 8.66658C10 8.4777 10.064 8.31925 10.192 8.19125C10.3196 8.0637 10.4778 7.99992 10.6667 7.99992C10.8556 7.99992 11.0138 8.0637 11.1413 8.19125C11.2693 8.31925 11.3333 8.4777 11.3333 8.66658C11.3333 8.85547 11.2693 9.0137 11.1413 9.14125C11.0138 9.26925 10.8556 9.33325 10.6667 9.33325ZM8 11.9999C7.81111 11.9999 7.65289 11.9359 7.52533 11.8079C7.39733 11.6804 7.33333 11.5221 7.33333 11.3333C7.33333 11.1444 7.39733 10.9861 7.52533 10.8586C7.65289 10.7306 7.81111 10.6666 8 10.6666C8.18889 10.6666 8.34733 10.7306 8.47533 10.8586C8.60289 10.9861 8.66667 11.1444 8.66667 11.3333C8.66667 11.5221 8.60289 11.6804 8.47533 11.8079C8.34733 11.9359 8.18889 11.9999 8 11.9999ZM5.33333 11.9999C5.14444 11.9999 4.986 11.9359 4.858 11.8079C4.73044 11.6804 4.66667 11.5221 4.66667 11.3333C4.66667 11.1444 4.73044 10.9861 4.858 10.8586C4.986 10.7306 5.14444 10.6666 5.33333 10.6666C5.52222 10.6666 5.68067 10.7306 5.80867 10.8586C5.93622 10.9861 6 11.1444 6 11.3333C6 11.5221 5.93622 11.6804 5.80867 11.8079C5.68067 11.9359 5.52222 11.9999 5.33333 11.9999ZM10.6667 11.9999C10.4778 11.9999 10.3196 11.9359 10.192 11.8079C10.064 11.6804 10 11.5221 10 11.3333C10 11.1444 10.064 10.9861 10.192 10.8586C10.3196 10.7306 10.4778 10.6666 10.6667 10.6666C10.8556 10.6666 11.0138 10.7306 11.1413 10.8586C11.2693 10.9861 11.3333 11.1444 11.3333 11.3333C11.3333 11.5221 11.2693 11.6804 11.1413 11.8079C11.0138 11.9359 10.8556 11.9999 10.6667 11.9999Z" fill="#666666"/>
</g>
</g>
<defs>
<clipPath id="clip0_356_6708">
<rect width="16" height="16" fill="white"/>
</clipPath>
</defs>
</svg>
