<svg width="15" height="16" viewBox="0 0 15 16" fill="none" xmlns="http://www.w3.org/2000/svg">
<g clip-path="url(#clip0_356_6667)">
<path d="M6.66667 10.6667V6.66675H4.66667V5.33342H10V6.66675H8V10.6667H6.66667ZM0 15.3334V11.3334H1.33333V4.66675H0V0.666748H4V2.00008H10.6667V0.666748H14.6667V4.66675H13.3333V11.3334H14.6667V15.3334H10.6667V14.0001H4V15.3334H0ZM4 12.6667H10.6667V11.3334H12V4.66675H10.6667V3.33341H4V4.66675H2.66667V11.3334H4V12.6667ZM1.33333 3.33341H2.66667V2.00008H1.33333V3.33341ZM12 3.33341H13.3333V2.00008H12V3.33341ZM12 14.0001H13.3333V12.6667H12V14.0001ZM1.33333 14.0001H2.66667V12.6667H1.33333V14.0001Z" fill="#666666"/>
</g>
<defs>
<clipPath id="clip0_356_6667">
<rect width="14.6667" height="14.6667" fill="white" transform="translate(0 0.666748)"/>
</clipPath>
</defs>
</svg>
