<svg width="16" height="16" viewBox="0 0 16 16" fill="none" xmlns="http://www.w3.org/2000/svg">
<g clip-path="url(#clip0_356_6676)">
<g clip-path="url(#clip1_356_6676)">
<path d="M8.00003 7.55548C8.61535 7.55548 9.21685 7.37301 9.72847 7.03116C10.2401 6.68931 10.6388 6.20342 10.8743 5.63494C11.1098 5.06645 11.1714 4.44091 11.0514 3.83742C10.9313 3.23392 10.635 2.67957 10.1999 2.24448C9.76482 1.80938 9.21047 1.51308 8.60698 1.39303C8.00348 1.27299 7.37794 1.3346 6.80946 1.57007C6.24098 1.80555 5.75509 2.2043 5.41323 2.71592C5.07138 3.22754 4.88892 3.82904 4.88892 4.44436C4.88892 5.26948 5.21669 6.06081 5.80014 6.64425C6.38359 7.2277 7.17491 7.55548 8.00003 7.55548ZM8.00003 2.22214C8.43954 2.22214 8.86918 2.35247 9.23463 2.59665C9.60007 2.84084 9.8849 3.1879 10.0531 3.59396C10.2213 4.00002 10.2653 4.44683 10.1796 4.8779C10.0938 5.30897 9.88216 5.70493 9.57138 6.01571C9.26059 6.3265 8.86463 6.53814 8.43356 6.62389C8.00249 6.70963 7.55568 6.66563 7.14962 6.49743C6.74356 6.32924 6.3965 6.04441 6.15232 5.67897C5.90814 5.31352 5.7778 4.88388 5.7778 4.44436C5.7778 3.85499 6.01193 3.28976 6.42868 2.87302C6.84543 2.45627 7.41066 2.22214 8.00003 2.22214Z" fill="#666666"/>
<path d="M13.5422 10.8311C12.8295 10.0778 11.9706 9.47773 11.018 9.06764C10.0655 8.65755 9.0393 8.44604 8.00223 8.44604C6.96516 8.44604 5.93898 8.65755 4.98643 9.06764C4.03389 9.47773 3.17498 10.0778 2.46223 10.8311C2.3077 10.9962 2.22188 11.2139 2.22223 11.44V13.7778C2.22223 14.0135 2.31588 14.2396 2.48258 14.4063C2.64928 14.573 2.87537 14.6667 3.11112 14.6667H12.8889C13.1246 14.6667 13.3507 14.573 13.5174 14.4063C13.6841 14.2396 13.7778 14.0135 13.7778 13.7778V11.44C13.7793 11.2145 13.6951 10.9968 13.5422 10.8311ZM12.8889 13.7778H3.11112V11.4355C3.741 10.7723 4.49925 10.2441 5.33972 9.88323C6.1802 9.52232 7.08532 9.33621 8.00001 9.33621C8.9147 9.33621 9.81982 9.52232 10.6603 9.88323C11.5008 10.2441 12.259 10.7723 12.8889 11.4355V13.7778Z" fill="#666666"/>
</g>
</g>
<defs>
<clipPath id="clip0_356_6676">
<rect width="16" height="16" fill="white"/>
</clipPath>
<clipPath id="clip1_356_6676">
<rect width="16" height="16" fill="white"/>
</clipPath>
</defs>
</svg>
